<svg xmlns="http://www.w3.org/2000/svg" viewBox="0 0 800 600" width="800" height="600">
  <rect width="800" height="600" fill="#2D5A27"/>
  <!-- Árboles de fondo -->
  <ellipse cx="100" cy="200" rx="80" ry="120" fill="#1E3D1A"/>
  <ellipse cx="250" cy="180" rx="100" ry="140" fill="#234D1F"/>
  <ellipse cx="550" cy="190" rx="90" ry="130" fill="#1E3D1A"/>
  <ellipse cx="700" cy="210" rx="85" ry="110" fill="#234D1F"/>
  <!-- Sendero -->
  <path d="M350 600 Q380 500 400 400 Q420 300 450 200 Q470 100 500 0" stroke="#A67C52" stroke-width="60" fill="none" opacity="0.7"/>
  <path d="M350 600 Q380 500 400 400 Q420 300 450 200 Q470 100 500 0" stroke="#8B5A2B" stroke-width="40" fill="none" opacity="0.5"/>
  <!-- Hojas decorativas -->
  <ellipse cx="150" cy="400" rx="40" ry="20" fill="#4A7C43" transform="rotate(-30 150 400)"/>
  <ellipse cx="650" cy="350" rx="35" ry="18" fill="#4A7C43" transform="rotate(25 650 350)"/>
  <text x="400" y="560" text-anchor="middle" font-family="Arial, sans-serif" font-size="20" fill="white" opacity="0.9">Senderismo</text>
</svg>
